<svg version="1.1" id="Layer_1" xmlns="http://www.w3.org/2000/svg" xmlns:xlink="http://www.w3.org/1999/xlink" x="0px" y="0px"
	 width="100%" viewBox="0 0 500 500" enable-background="new 0 0 500 500" xml:space="preserve">
<path fill="#000000" opacity="1.000000" stroke="none" 
	d="
M334.000000,501.000000 
	C222.666687,501.000000 111.833389,501.000000 1.000059,501.000000 
	C1.000040,334.333405 1.000040,167.666794 1.000020,1.000149 
	C167.666565,1.000099 334.333130,1.000099 500.999756,1.000050 
	C500.999847,167.666519 500.999847,334.333038 500.999939,500.999786 
	C445.500000,501.000000 390.000000,501.000000 334.000000,501.000000 
M250.500000,394.000732 
	C289.650146,394.000763 328.800262,394.009460 367.950409,393.996521 
	C383.029541,393.991547 393.995789,382.971771 393.997284,367.826019 
	C394.004974,290.025635 394.003510,212.225235 393.998779,134.424850 
	C393.997833,118.934631 383.122925,108.003395 367.700806,108.002121 
	C289.900421,107.995720 212.100021,107.995743 134.299637,108.002159 
	C118.876831,108.003426 108.001991,118.933792 108.001038,134.424103 
	C107.996262,212.057892 107.997223,289.691681 108.000496,367.325470 
	C108.001160,383.159515 118.785286,393.996307 134.548676,393.998871 
	C172.865784,394.005035 211.182892,394.000824 250.500000,394.000732 
z"/>
<path fill="#F4F6FC" opacity="1.000000" stroke="none" 
	d="
M250.000000,394.000763 
	C211.182892,394.000824 172.865784,394.005035 134.548676,393.998871 
	C118.785286,393.996307 108.001160,383.159515 108.000496,367.325470 
	C107.997223,289.691681 107.996262,212.057892 108.001038,134.424103 
	C108.001991,118.933792 118.876831,108.003426 134.299637,108.002159 
	C212.100021,107.995743 289.900421,107.995720 367.700806,108.002121 
	C383.122925,108.003395 393.997833,118.934631 393.998779,134.424850 
	C394.003510,212.225235 394.004974,290.025635 393.997284,367.826019 
	C393.995789,382.971771 383.029541,393.991547 367.950409,393.996521 
	C328.800262,394.009460 289.650146,394.000763 250.000000,394.000763 
M231.274445,233.259308 
	C233.238113,236.917755 234.980499,240.718414 237.218430,244.200592 
	C240.395355,249.143829 241.494431,254.326660 241.361191,260.216858 
	C241.033585,274.698944 241.247284,289.193390 241.263840,303.682892 
	C241.265671,305.289337 241.400330,306.895630 241.476349,308.567261 
	C249.165710,308.567261 256.410217,308.567261 264.021851,308.567261 
	C264.021851,290.855225 263.944458,273.400208 264.108398,255.947495 
	C264.131989,253.436752 264.852905,250.688034 266.039032,248.470947 
	C276.694824,228.553238 287.529755,208.731384 298.300964,188.875351 
	C299.064331,187.468170 299.739807,186.013290 300.789642,183.913559 
	C298.212494,183.913559 296.228394,184.229294 294.380432,183.861359 
	C283.848511,181.764435 277.949524,186.083740 273.640930,195.900879 
	C268.549194,207.502396 261.575714,218.278015 255.047440,230.081619 
	C253.799698,227.879318 252.905975,226.370850 252.076920,224.827667 
	C245.395813,212.391678 238.754593,199.934082 232.014542,187.530182 
	C231.281693,186.181473 230.037003,184.140671 228.966782,184.100555 
	C221.134613,183.806915 213.286362,183.942245 205.153778,183.942245 
	C205.572723,184.987793 205.663757,185.296432 205.812378,185.574265 
	C214.194321,201.245621 222.581085,216.914398 231.274445,233.259308 
M181.162201,335.288605 
	C183.595367,335.466125 186.028519,335.643616 188.736145,335.841125 
	C188.736145,329.220642 188.736145,323.137878 188.736145,317.065582 
	C176.571640,316.350616 174.659561,314.295746 174.658722,302.136292 
	C174.658173,294.140076 174.576630,286.142822 174.678986,278.147919 
	C174.801361,268.588501 171.544647,260.589233 164.204941,254.341156 
	C163.204041,253.489136 162.286346,252.539337 161.117157,251.433350 
	C171.876480,244.339355 175.208420,234.124924 174.726700,221.974075 
	C174.377213,213.158768 174.594543,204.317841 174.680145,195.489517 
	C174.742523,189.058868 177.959167,185.657593 184.319824,185.087967 
	C185.752472,184.959671 187.206421,185.069107 188.674957,185.069107 
	C188.674957,178.541901 188.674957,172.468048 188.674957,166.426788 
	C168.952728,164.860260 155.326538,177.419250 155.355362,196.824936 
	C155.364014,202.655502 155.432892,208.487213 155.345230,214.316467 
	C155.038971,234.682037 158.170166,229.932343 141.397324,242.427658 
	C141.130386,242.626541 140.848740,242.807083 140.592392,243.018524 
	C134.918839,247.697937 134.623596,253.303711 139.973999,258.350342 
	C143.485062,261.662079 147.150345,264.820404 150.871506,267.896301 
	C154.057648,270.529907 155.492218,273.688110 155.415085,277.883392 
	C155.234375,287.708801 155.307999,297.539948 155.360062,307.368317 
	C155.435974,321.701111 165.968323,333.410034 181.162201,335.288605 
M338.133087,328.691193 
	C344.895386,322.087463 348.655273,314.321045 348.010101,304.607758 
	C347.690613,299.798004 347.878235,294.948090 347.966980,290.118774 
	C348.362793,268.585968 344.873047,274.848480 361.307281,260.197144 
	C368.501648,253.783264 368.236633,247.092773 360.546722,241.406601 
	C357.870575,239.427795 355.177917,237.471268 352.509125,235.482620 
	C349.378815,233.150055 347.811707,230.210495 347.888275,226.111008 
	C348.084259,215.619797 347.972687,205.122482 347.952789,194.627655 
	C347.919830,177.210495 332.338593,164.039474 314.614838,166.635666 
	C314.614838,172.662888 314.614838,178.719299 314.614838,184.748566 
	C327.167542,185.782822 328.833130,187.639496 328.833130,200.284866 
	C328.833160,209.280457 328.419128,218.303162 329.003143,227.260742 
	C329.317596,232.083527 330.625854,237.160217 332.808777,241.448959 
	C334.818024,245.396561 338.598480,248.442657 341.841492,252.164474 
	C330.874756,259.587952 327.911072,270.592010 328.744202,283.409943 
	C329.229401,290.874756 328.876770,298.397186 328.820190,305.893097 
	C328.769989,312.548004 325.571869,316.095459 319.063171,316.829590 
	C317.611755,316.993286 316.142303,316.996857 314.725098,317.071838 
	C314.725098,323.409424 314.725098,329.456879 314.725098,335.603455 
	C323.352600,335.990387 330.991089,334.441406 338.133087,328.691193 
z"/>
<path fill="#030304" opacity="1.000000" stroke="none" 
	d="
M231.120911,232.921356 
	C222.581085,216.914398 214.194321,201.245621 205.812378,185.574265 
	C205.663757,185.296432 205.572723,184.987793 205.153778,183.942245 
	C213.286362,183.942245 221.134613,183.806915 228.966782,184.100555 
	C230.037003,184.140671 231.281693,186.181473 232.014542,187.530182 
	C238.754593,199.934082 245.395813,212.391678 252.076920,224.827667 
	C252.905975,226.370850 253.799698,227.879318 255.047440,230.081619 
	C261.575714,218.278015 268.549194,207.502396 273.640930,195.900879 
	C277.949524,186.083740 283.848511,181.764435 294.380432,183.861359 
	C296.228394,184.229294 298.212494,183.913559 300.789642,183.913559 
	C299.739807,186.013290 299.064331,187.468170 298.300964,188.875351 
	C287.529755,208.731384 276.694824,228.553238 266.039032,248.470947 
	C264.852905,250.688034 264.131989,253.436752 264.108398,255.947495 
	C263.944458,273.400208 264.021851,290.855225 264.021851,308.567261 
	C256.410217,308.567261 249.165710,308.567261 241.476349,308.567261 
	C241.400330,306.895630 241.265671,305.289337 241.263840,303.682892 
	C241.247284,289.193390 241.033585,274.698944 241.361191,260.216858 
	C241.494431,254.326660 240.395355,249.143829 237.218430,244.200592 
	C234.980499,240.718414 233.238113,236.917755 231.120911,232.921356 
z"/>
<path fill="#060606" opacity="1.000000" stroke="none" 
	d="
M180.735840,335.243042 
	C165.968323,333.410034 155.435974,321.701111 155.360062,307.368317 
	C155.307999,297.539948 155.234375,287.708801 155.415085,277.883392 
	C155.492218,273.688110 154.057648,270.529907 150.871506,267.896301 
	C147.150345,264.820404 143.485062,261.662079 139.973999,258.350342 
	C134.623596,253.303711 134.918839,247.697937 140.592392,243.018524 
	C140.848740,242.807083 141.130386,242.626541 141.397324,242.427658 
	C158.170166,229.932343 155.038971,234.682037 155.345230,214.316467 
	C155.432892,208.487213 155.364014,202.655502 155.355362,196.824936 
	C155.326538,177.419250 168.952728,164.860260 188.674957,166.426788 
	C188.674957,172.468048 188.674957,178.541901 188.674957,185.069107 
	C187.206421,185.069107 185.752472,184.959671 184.319824,185.087967 
	C177.959167,185.657593 174.742523,189.058868 174.680145,195.489517 
	C174.594543,204.317841 174.377213,213.158768 174.726700,221.974075 
	C175.208420,234.124924 171.876480,244.339355 161.117157,251.433350 
	C162.286346,252.539337 163.204041,253.489136 164.204941,254.341156 
	C171.544647,260.589233 174.801361,268.588501 174.678986,278.147919 
	C174.576630,286.142822 174.658173,294.140076 174.658722,302.136292 
	C174.659561,314.295746 176.571640,316.350616 188.736145,317.065582 
	C188.736145,323.137878 188.736145,329.220642 188.736145,335.841125 
	C186.028519,335.643616 183.595367,335.466125 180.735840,335.243042 
z"/>
<path fill="#030303" opacity="1.000000" stroke="none" 
	d="
M337.848572,328.911621 
	C330.991089,334.441406 323.352600,335.990387 314.725098,335.603455 
	C314.725098,329.456879 314.725098,323.409424 314.725098,317.071838 
	C316.142303,316.996857 317.611755,316.993286 319.063171,316.829590 
	C325.571869,316.095459 328.769989,312.548004 328.820190,305.893097 
	C328.876770,298.397186 329.229401,290.874756 328.744202,283.409943 
	C327.911072,270.592010 330.874756,259.587952 341.841492,252.164474 
	C338.598480,248.442657 334.818024,245.396561 332.808777,241.448959 
	C330.625854,237.160217 329.317596,232.083527 329.003143,227.260742 
	C328.419128,218.303162 328.833160,209.280457 328.833130,200.284866 
	C328.833130,187.639496 327.167542,185.782822 314.614838,184.748566 
	C314.614838,178.719299 314.614838,172.662888 314.614838,166.635666 
	C332.338593,164.039474 347.919830,177.210495 347.952789,194.627655 
	C347.972687,205.122482 348.084259,215.619797 347.888275,226.111008 
	C347.811707,230.210495 349.378815,233.150055 352.509125,235.482620 
	C355.177917,237.471268 357.870575,239.427795 360.546722,241.406601 
	C368.236633,247.092773 368.501648,253.783264 361.307281,260.197144 
	C344.873047,274.848480 348.362793,268.585968 347.966980,290.118774 
	C347.878235,294.948090 347.690613,299.798004 348.010101,304.607758 
	C348.655273,314.321045 344.895386,322.087463 337.848572,328.911621 
z"/>
</svg>